{"asset":{"version":"2.0","generator":"Unity 2021.3.9f1 glTFast 5.0.0"},"nodes":[{"name":"ExportedGLTF","mesh":0}],"buffers":[{"uri":"exportedGLTF.bin","byteLength":484272}],"bufferViews":[{"buffer":0,"byteLength":24624},{"buffer":0,"byteLength":459648,"byteOffset":24624,"byteStride":56}],"accessors":[{"bufferView":1,"componentType":5126,"count":8208,"type":"VEC3","max":[0.402695656,0.258054435,0.108920731],"min":[0.177695692,-0.06694558,-0.06607928]},{"bufferView":1,"componentType":5126,"count":8208,"type":"VEC3","byteOffset":12},{"bufferView":1,"componentType":5126,"count":8208,"type":"VEC4","byteOffset":24},{"bufferView":1,"componentType":5126,"count":8208,"type":"VEC2","byteOffset":40},{"bufferView":1,"componentType":5126,"count":8208,"type":"VEC2","byteOffset":48},{"bufferView":0,"componentType":5123,"count":12312,"type":"SCALAR"}],"materials":[{"name":"Transparent_Red (Instance)","pbrMetallicRoughness":{"baseColorFactor":[1,1,0,0.1],"metallicFactor":0},"emissiveFactor":[1,1,0],"alphaMode":"BLEND"}],"meshes":[{"primitives":[{"attributes":{"POSITION":0,"NORMAL":1,"TANGENT":2,"TEXCOORD_0":3,"TEXCOORD_1":4},"indices":5,"material":0}]}],"scene":0,"scenes":[{"nodes":[0]}]}