{"asset": {"version": "2.0", "generator": "Unity 2021.3.9f1 glTFast 5.0.0 Maxis Python Server"}, "nodes": [{"name": "ServerGLTF", "mesh": 0}], "buffers": [{"uri": "serverGLTF.bin", "byteLength": 87792}], "bufferViews": [{"buffer": 0, "byteLength": 4464}, {"buffer": 0, "byteLength": 83328, "byteOffset": 4464, "byteStride": 56}], "accessors": [{"bufferView": 1, "componentType": 5126, "count": 1488, "type": "VEC3", "max": [-0.18684575, 0.186306417, 0.0269144475], "min": [-0.286845744, 0.0363063961, -0.0480855554]}, {"bufferView": 1, "componentType": 5126, "count": 1488, "type": "VEC3", "byteOffset": 12}, {"bufferView": 1, "componentType": 5126, "count": 1488, "type": "VEC4", "byteOffset": 24}, {"bufferView": 1, "componentType": 5126, "count": 1488, "type": "VEC2", "byteOffset": 40}, {"bufferView": 1, "componentType": 5126, "count": 1488, "type": "VEC2", "byteOffset": 48}, {"bufferView": 0, "componentType": 5123, "count": 2232, "type": "SCALAR"}], "materials": [{"name": "Transparent_Red (Instance)", "pbrMetallicRoughness": {"baseColorFactor": [1, 1, 0, 0.1], "metallicFactor": 0}, "emissiveFactor": [1, 1, 0], "alphaMode": "BLEND"}], "meshes": [{"primitives": [{"attributes": {"POSITION": 0, "NORMAL": 1, "TANGENT": 2, "TEXCOORD_0": 3, "TEXCOORD_1": 4}, "indices": 5, "material": 0}]}], "scene": 0, "scenes": [{"nodes": [0]}]}